<svg xmlns="http://www.w3.org/2000/svg" xmlns:xlink="http://www.w3.org/1999/xlink" width="24"
    height="24" viewBox="0 0 24 24">
    <defs>
        <style>.a,.c{fill:#777;}.a{stroke:#707070;}.b{clip-path:url(#a);}</style>
        <clipPath id="a">
            <rect class="a" width="24" height="24" transform="translate(223 757)" />
        </clipPath>
    </defs>
    <g class="b" transform="translate(-223 -757)">
        <g transform="translate(222.2 756.2)">
            <path class="c"
                d="M21.6,4.4A1.6,1.6,0,0,0,20,2.8h-.4V4a.8.8,0,0,1-.8.8H18a.8.8,0,0,0,.8-.8V1.6a.8.8,0,0,0-1.6,0V2.8h-2V4a.8.8,0,0,1-.8.8h-.8a.8.8,0,0,0,.8-.8V1.6a.8.8,0,0,0-1.6,0V2.8H10.4V4a.8.8,0,0,1-.8.8H8.8A.8.8,0,0,0,9.6,4V1.6A.8.8,0,0,0,8,1.6V2.8H6V4a.8.8,0,0,1-.8.8H4.4A.8.8,0,0,0,5.2,4V1.6a.8.8,0,0,0-1.6,0V2.8H2.4A1.6,1.6,0,0,0,.8,4.4V6.8H21.6Z" />
            <path class="c"
                d="M20.4,16a4.4,4.4,0,1,0,4.4,4.4A4.4,4.4,0,0,0,20.4,16Zm0,5.2a.8.8,0,0,1-.29-.056l-1.46,1.169-.5-.625,1.462-1.169A.764.764,0,0,1,20,19.711V17.2h.8v2.511a.8.8,0,0,1-.4,1.489Z" />
            <path class="c"
                d="M2.4,22.4H15.6a5.2,5.2,0,0,1,2.8-6.8h-2V13.2h2.4v2.253a5.121,5.121,0,0,1,2.8-.109V7.6H.8V20.8a1.6,1.6,0,0,0,1.6,1.6Zm14-13.6h2.4v2.4H16.4ZM12,8.8h2.4v2.4H12Zm0,4.4h2.4v2.4H12Zm0,4.4h2.4V20H12ZM7.6,8.8H10v2.4H7.6Zm0,4.4H10v2.4H7.6Zm0,4.4H10V20H7.6ZM3.2,8.8H5.6v2.4H3.2Zm0,4.4H5.6v2.4H3.2Zm0,4.4H5.6V20H3.2Z" />
        </g>
    </g>
</svg>