<svg xmlns="http://www.w3.org/2000/svg" xmlns:xlink="http://www.w3.org/1999/xlink" width="24" height="24" viewBox="0 0 24 24"><defs><style>.a,.c{fill:#777;}.a{stroke:#707070;}.b{clip-path:url(#a);}</style><clipPath id="a"><rect class="a" width="24" height="24" transform="translate(223 757)"/></clipPath></defs><g class="b" transform="translate(-223 -757)"><g transform="translate(223 757)"><path class="c" d="M23.331,19.07l-5.547-4.706a.705.705,0,0,0-1.042.14,9.533,9.533,0,0,1-2.3,2.3.724.724,0,0,0-.3.493.7.7,0,0,0,.162.546L19.01,23.4a1.637,1.637,0,0,0,2.443.109l1.991-1.991a1.637,1.637,0,0,0-.112-2.445Z"/><path class="c" d="M8.876,17.627A8.814,8.814,0,1,0,.062,8.814,8.756,8.756,0,0,0,8.876,17.627ZM2.918,8.814a5.955,5.955,0,1,1,5.957,5.957A5.964,5.964,0,0,1,2.918,8.814Z"/></g></g></svg>